<svg width="82" height="81" viewBox="0 0 82 81" fill="none" xmlns="http://www.w3.org/2000/svg">
<path d="M41 0C63.6437 0 82 18.1325 82 40.5C81.9998 62.8674 63.6436 81 41 81C18.3564 81 0.000200384 62.8674 0 40.5C0 18.1325 18.3563 0 41 0ZM56.4434 54.3965C54.9078 52.4359 52.1635 51.9043 50.0068 53.1494L47.9805 54.3193C45.8238 55.5645 44.9116 58.2075 45.8418 60.5176L48.8145 67.8994C49.9502 70.7196 53.3191 71.8813 55.9521 70.3613L59.9141 68.0742C62.5469 66.5538 63.2252 63.0548 61.3506 60.6611L56.4434 54.3965ZM26.9824 46.9795C25.7372 44.823 23.0951 43.9117 20.7852 44.8418L13.4033 47.8145C10.5829 48.9502 9.42024 52.319 10.9404 54.9521L13.2275 58.9131C14.7478 61.5463 18.2468 62.2243 20.6406 60.3496L26.9062 55.4434C28.8667 53.9079 29.3982 51.1634 28.1533 49.0068L26.9824 46.9795ZM41.5576 29.667C35.4535 29.667 30.5049 34.6156 30.5049 40.7197C30.5049 46.8238 35.4535 51.7725 41.5576 51.7725C47.6617 51.7724 52.6103 46.8238 52.6104 40.7197C52.6104 34.6156 47.6617 29.6671 41.5576 29.667ZM69.0742 21.3877C67.5538 18.7549 64.0548 18.0775 61.6611 19.9521L55.3965 24.8584C53.4359 26.3939 52.9042 29.1382 54.1494 31.2949L55.3193 33.3213C56.5645 35.478 59.2075 36.3902 61.5176 35.46L68.8994 32.4873C71.7196 31.3515 72.8814 27.9827 71.3613 25.3496L69.0742 21.3877ZM33.4883 12.4023C32.3525 9.58207 28.9837 8.42035 26.3506 9.94043L22.3887 12.2266C19.7557 13.7467 19.0778 17.2459 20.9521 19.6396L25.8594 25.9053C27.3949 27.8658 30.1392 28.3975 32.2959 27.1523L34.3223 25.9824C36.479 24.7372 37.3911 22.0943 36.4609 19.7842L33.4883 12.4023Z" fill="#FFF6C4"/>
</svg>
